<svg width="266" height="38" viewBox="0 0 266 38" fill="none" xmlns="http://www.w3.org/2000/svg">
<path d="M17.3329 25.8326C17.8835 26.0707 18.4043 26.1897 18.8954 26.1897C21.693 26.1897 23.0918 24.9435 23.0918 22.4509C23.0918 21.6027 22.9393 20.933 22.6342 20.442C22.4333 20.1146 22.2027 19.8393 21.9422 19.6161C21.6893 19.3929 21.44 19.2217 21.1945 19.1027C20.9489 18.9762 20.6476 18.8832 20.2905 18.8237C19.9408 18.7567 19.6283 18.7158 19.353 18.7009C19.0851 18.686 18.7354 18.6786 18.3039 18.6786C17.7607 18.6786 17.385 18.7158 17.1766 18.7902C17.1766 19.1845 17.1729 19.776 17.1655 20.5647C17.1655 21.3534 17.1655 21.9412 17.1655 22.3281C17.1655 22.3876 17.1617 22.6406 17.1543 23.0871C17.1469 23.526 17.1431 23.8832 17.1431 24.1585C17.1506 24.4338 17.1692 24.7463 17.1989 25.096C17.2287 25.4382 17.2733 25.6838 17.3329 25.8326ZM17.1766 17.5067C17.4891 17.5588 17.8946 17.5848 18.3931 17.5848C19.0033 17.5848 19.5352 17.5365 19.9891 17.4397C20.443 17.343 20.8522 17.1793 21.2168 16.9487C21.5814 16.7106 21.8567 16.3757 22.0427 15.9442C22.2361 15.5126 22.3329 14.9844 22.3329 14.3594C22.3329 13.8385 22.225 13.3847 22.0092 12.9978C21.7934 12.6034 21.4995 12.2984 21.1275 12.0826C20.7555 11.8594 20.3537 11.6957 19.9222 11.5915C19.4906 11.4874 19.0293 11.4353 18.5382 11.4353C18.1662 11.4353 17.6826 11.4836 17.0873 11.5804C17.0873 11.9524 17.1022 12.5141 17.132 13.2656C17.1617 14.0171 17.1766 14.5826 17.1766 14.9621C17.1766 15.1629 17.1729 15.4606 17.1655 15.8549C17.1655 16.2493 17.1655 16.5432 17.1655 16.7366C17.1655 17.0789 17.1692 17.3356 17.1766 17.5067ZM11.1387 27.4286L11.161 26.3795C11.2726 26.3497 11.5888 26.2902 12.1097 26.2009C12.6305 26.1116 13.0248 26.0112 13.2927 25.8996C13.3448 25.8103 13.3894 25.7098 13.4266 25.5982C13.4713 25.4866 13.5047 25.3638 13.5271 25.2299C13.5494 25.0885 13.568 24.9658 13.5829 24.8616C13.6052 24.7574 13.6164 24.6198 13.6164 24.4487C13.6238 24.2701 13.6275 24.1436 13.6275 24.0692C13.6275 23.9874 13.6275 23.8534 13.6275 23.6674C13.6275 23.4814 13.6275 23.3698 13.6275 23.3326C13.6275 16.026 13.5457 12.2128 13.382 11.8929C13.3522 11.8333 13.2704 11.7812 13.1364 11.7366C13.0025 11.6845 12.8351 11.6436 12.6342 11.6138C12.4408 11.5766 12.2585 11.5506 12.0873 11.5357C11.9162 11.5134 11.7339 11.4948 11.5405 11.4799C11.3544 11.465 11.2428 11.4539 11.2056 11.4464L11.161 10.5201C11.8902 10.5052 13.155 10.4643 14.9556 10.3973C16.7562 10.3229 18.1439 10.2857 19.1186 10.2857C19.2897 10.2857 19.5427 10.2894 19.8775 10.2969C20.2123 10.2969 20.4653 10.2969 20.6364 10.2969C21.1573 10.2969 21.6632 10.3452 22.1543 10.442C22.6528 10.5387 23.1327 10.6949 23.594 10.9107C24.0553 11.1265 24.4571 11.3906 24.7994 11.7031C25.1416 12.0156 25.4169 12.4062 25.6253 12.875C25.8336 13.3363 25.9378 13.846 25.9378 14.404C25.9378 14.7909 25.8745 15.1481 25.748 15.4754C25.629 15.7954 25.4839 16.0632 25.3128 16.279C25.1491 16.4874 24.911 16.6994 24.5985 16.9152C24.286 17.131 24.0144 17.2984 23.7838 17.4174C23.5531 17.5365 23.2406 17.6853 22.8463 17.8638C23.9921 18.1243 24.9445 18.6228 25.7034 19.3594C26.4698 20.096 26.853 21.0186 26.853 22.1272C26.853 22.8713 26.7228 23.5409 26.4623 24.1362C26.2019 24.724 25.8522 25.2076 25.4132 25.5871C24.9817 25.9665 24.4683 26.2827 23.873 26.5357C23.2852 26.7961 22.6789 26.9784 22.0539 27.0826C21.4289 27.1868 20.7741 27.2388 20.0896 27.2388C19.7622 27.2388 19.2711 27.2277 18.6164 27.2054C17.9616 27.183 17.4705 27.1719 17.1431 27.1719C16.3544 27.1719 15.2123 27.2128 13.7168 27.2946C12.2213 27.3765 11.3619 27.4211 11.1387 27.4286Z" fill="#A7B6C2"/>
<path d="M51.2871 27.4062L51.4768 26.4576C51.6405 26.4055 51.8675 26.3423 52.1576 26.2679C52.4553 26.2009 52.7231 26.1302 52.9612 26.0558C53.2068 25.9888 53.43 25.9033 53.6309 25.7991C53.8392 25.5387 53.9917 25.1629 54.0884 24.6719C54.0959 24.6198 54.3265 23.5446 54.7804 21.4464C55.2343 19.3482 55.6584 17.3281 56.0527 15.3862C56.4471 13.4368 56.6405 12.3318 56.6331 12.0714V11.7924C56.4545 11.6957 56.2499 11.6287 56.0193 11.5915C55.796 11.5469 55.5393 11.5171 55.2492 11.5022C54.959 11.4799 54.7432 11.4576 54.6018 11.4353L54.8139 10.2857C55.0594 10.3006 55.5059 10.3266 56.1532 10.3638C56.8005 10.3936 57.3548 10.4196 57.8161 10.442C58.2849 10.4568 58.735 10.4643 59.1666 10.4643C59.5237 10.4643 59.8883 10.4568 60.2603 10.442C60.6398 10.4196 61.0899 10.3936 61.6108 10.3638C62.139 10.3266 62.5073 10.3006 62.7157 10.2857C62.6785 10.5759 62.6078 10.907 62.5036 11.279C62.2804 11.3534 61.9009 11.4613 61.3652 11.6027C60.837 11.7366 60.4352 11.8594 60.1599 11.971C60.1004 12.1124 60.0483 12.2723 60.0036 12.4509C59.959 12.622 59.9255 12.7708 59.9032 12.8973C59.8809 13.0164 59.8511 13.1838 59.8139 13.3996C59.7841 13.6153 59.7618 13.7716 59.7469 13.8683C59.546 14.9695 59.2187 16.532 58.7648 18.5558C58.3184 20.5722 58.0319 21.8929 57.9054 22.5179C57.8905 22.5848 57.8422 22.8006 57.7603 23.1652C57.6785 23.5298 57.6041 23.8646 57.5371 24.1696C57.4701 24.4747 57.4106 24.7872 57.3585 25.1071C57.3065 25.4196 57.2841 25.6317 57.2916 25.7433L57.3027 25.9442C57.4292 25.974 58.1175 26.0893 59.3675 26.2902C59.3451 26.6176 59.2856 26.9859 59.1889 27.3951C59.1071 27.3951 58.9843 27.3988 58.8206 27.4062C58.6643 27.4211 58.5453 27.4286 58.4634 27.4286C58.2477 27.4286 57.924 27.3914 57.4925 27.317C57.0609 27.2426 56.741 27.2054 56.5326 27.2054C55.5059 27.1905 54.7395 27.183 54.2335 27.183C53.8541 27.183 53.3221 27.2165 52.6376 27.2835C51.953 27.3504 51.5029 27.3914 51.2871 27.4062Z" fill="#A7B6C2"/>
<path d="M86.9615 11.346C86.6862 11.3311 86.5188 11.3162 86.4593 11.3013L86.4258 10.3192C86.5225 10.3118 86.6713 10.308 86.8722 10.308C87.3186 10.308 87.7353 10.3229 88.1222 10.3527C89.1044 10.4048 89.7219 10.4308 89.9749 10.4308C90.6148 10.4308 91.2398 10.4196 91.8499 10.3973C92.713 10.3676 93.2561 10.349 93.4794 10.3415C93.896 10.3415 94.216 10.3341 94.4392 10.3192L94.428 10.4754L94.4503 11.1897V11.2902C94.0039 11.3571 93.5426 11.3906 93.0664 11.3906C92.62 11.3906 92.3261 11.4836 92.1847 11.6696C92.088 11.7738 92.0396 12.2649 92.0396 13.1429C92.0396 13.2396 92.0396 13.3624 92.0396 13.5112C92.0471 13.6525 92.0508 13.7455 92.0508 13.7902L92.0619 16.346L92.2182 19.471C92.2628 20.3936 92.4526 21.1451 92.7874 21.7254C93.0478 22.1644 93.4049 22.5067 93.8588 22.7522C94.5136 23.1019 95.1721 23.2768 95.8343 23.2768C96.6081 23.2768 97.3186 23.1726 97.966 22.9643C98.3826 22.8304 98.7509 22.6406 99.0709 22.3951C99.428 22.1272 99.6698 21.8891 99.7963 21.6808C100.064 21.2641 100.261 20.84 100.388 20.4085C100.544 19.8653 100.622 19.0134 100.622 17.8527C100.622 17.2649 100.607 16.7887 100.578 16.4241C100.555 16.0595 100.514 15.6057 100.455 15.0625C100.403 14.5119 100.354 13.9167 100.31 13.2768L100.265 12.6183C100.228 12.1198 100.139 11.7924 99.9972 11.6362C99.7442 11.3757 99.4578 11.2493 99.1378 11.2567L98.0218 11.279L97.8655 11.2455L97.8878 10.2857H98.8253L101.113 10.3973C101.679 10.4196 102.408 10.3824 103.301 10.2857L103.502 10.308C103.546 10.5908 103.569 10.7805 103.569 10.8772C103.569 10.9293 103.554 11.0446 103.524 11.2232C103.189 11.3125 102.877 11.3609 102.586 11.3683C102.043 11.4501 101.749 11.5134 101.705 11.558C101.593 11.6696 101.537 11.8222 101.537 12.0156C101.537 12.0677 101.541 12.1682 101.549 12.317C101.563 12.4658 101.571 12.5811 101.571 12.6629C101.63 12.8043 101.712 14.2775 101.816 17.0826C101.861 18.5335 101.805 19.6644 101.649 20.4754C101.537 21.0409 101.385 21.4948 101.191 21.8371C100.909 22.3207 100.492 22.7783 99.9414 23.2098C99.3834 23.6339 98.7063 23.965 97.9102 24.2031C97.0991 24.4487 96.1505 24.5714 95.0642 24.5714C93.8216 24.5714 92.7651 24.4003 91.8945 24.058C91.0091 23.7083 90.3432 23.2545 89.8968 22.6964C89.4429 22.131 89.1341 21.4055 88.9704 20.5201C88.8514 19.9249 88.7919 19.0432 88.7919 17.875V14.1585C88.7919 12.7597 88.7286 11.9673 88.6021 11.7812C88.4161 11.5134 87.8692 11.3683 86.9615 11.346ZM103.569 27.0714V26.3571C103.569 26.253 103.535 26.1674 103.468 26.1004C103.401 26.0335 103.316 26 103.211 26H86.7829C86.6788 26 86.5932 26.0335 86.5262 26.1004C86.4593 26.1674 86.4258 26.253 86.4258 26.3571V27.0714C86.4258 27.1756 86.4593 27.2612 86.5262 27.3281C86.5932 27.3951 86.6788 27.4286 86.7829 27.4286H103.211C103.316 27.4286 103.401 27.3951 103.468 27.3281C103.535 27.2612 103.569 27.1756 103.569 27.0714Z" fill="#A7B6C2"/>
<path d="M181 23.8571V25.2857C181 25.4792 180.929 25.6466 180.788 25.7879C180.647 25.9293 180.479 26 180.286 26H161.714C161.521 26 161.353 25.9293 161.212 25.7879C161.071 25.6466 161 25.4792 161 25.2857V23.8571C161 23.6637 161.071 23.4963 161.212 23.3549C161.353 23.2135 161.521 23.1429 161.714 23.1429H180.286C180.479 23.1429 180.647 23.2135 180.788 23.3549C180.929 23.4963 181 23.6637 181 23.8571ZM176.714 19.5714V21C176.714 21.1935 176.644 21.3609 176.502 21.5022C176.361 21.6436 176.193 21.7143 176 21.7143H166C165.807 21.7143 165.639 21.6436 165.498 21.5022C165.356 21.3609 165.286 21.1935 165.286 21V19.5714C165.286 19.378 165.356 19.2106 165.498 19.0692C165.639 18.9278 165.807 18.8571 166 18.8571H176C176.193 18.8571 176.361 18.9278 176.502 19.0692C176.644 19.2106 176.714 19.378 176.714 19.5714ZM179.571 15.2857V16.7143C179.571 16.9077 179.501 17.0751 179.359 17.2165C179.218 17.3579 179.051 17.4286 178.857 17.4286H163.143C162.949 17.4286 162.782 17.3579 162.641 17.2165C162.499 17.0751 162.429 16.9077 162.429 16.7143V15.2857C162.429 15.0923 162.499 14.9249 162.641 14.7835C162.782 14.6421 162.949 14.5714 163.143 14.5714H178.857C179.051 14.5714 179.218 14.6421 179.359 14.7835C179.501 14.9249 179.571 15.0923 179.571 15.2857ZM175.286 11V12.4286C175.286 12.622 175.215 12.7894 175.074 12.9308C174.932 13.0722 174.765 13.1429 174.571 13.1429H167.429C167.235 13.1429 167.068 13.0722 166.926 12.9308C166.785 12.7894 166.714 12.622 166.714 12.4286V11C166.714 10.8065 166.785 10.6391 166.926 10.4978C167.068 10.3564 167.235 10.2857 167.429 10.2857H174.571C174.765 10.2857 174.932 10.3564 175.074 10.4978C175.215 10.6391 175.286 10.8065 175.286 11Z" fill="#A7B6C2"/>
<path d="M257 23.8571V25.2857C257 25.4792 256.929 25.6466 256.788 25.7879C256.647 25.9293 256.479 26 256.286 26H237.714C237.521 26 237.353 25.9293 237.212 25.7879C237.071 25.6466 237 25.4792 237 25.2857V23.8571C237 23.6637 237.071 23.4963 237.212 23.3549C237.353 23.2135 237.521 23.1429 237.714 23.1429H256.286C256.479 23.1429 256.647 23.2135 256.788 23.3549C256.929 23.4963 257 23.6637 257 23.8571ZM257 19.5714V21C257 21.1935 256.929 21.3609 256.788 21.5022C256.647 21.6436 256.479 21.7143 256.286 21.7143H237.714C237.521 21.7143 237.353 21.6436 237.212 21.5022C237.071 21.3609 237 21.1935 237 21V19.5714C237 19.378 237.071 19.2106 237.212 19.0692C237.353 18.9278 237.521 18.8571 237.714 18.8571H256.286C256.479 18.8571 256.647 18.9278 256.788 19.0692C256.929 19.2106 257 19.378 257 19.5714ZM257 15.2857V16.7143C257 16.9077 256.929 17.0751 256.788 17.2165C256.647 17.3579 256.479 17.4286 256.286 17.4286H237.714C237.521 17.4286 237.353 17.3579 237.212 17.2165C237.071 17.0751 237 16.9077 237 16.7143V15.2857C237 15.0923 237.071 14.9249 237.212 14.7835C237.353 14.6421 237.521 14.5714 237.714 14.5714H256.286C256.479 14.5714 256.647 14.6421 256.788 14.7835C256.929 14.9249 257 15.0923 257 15.2857ZM257 11V12.4286C257 12.622 256.929 12.7894 256.788 12.9308C256.647 13.0722 256.479 13.1429 256.286 13.1429H237.714C237.521 13.1429 237.353 13.0722 237.212 12.9308C237.071 12.7894 237 12.622 237 12.4286V11C237 10.8065 237.071 10.6391 237.212 10.4978C237.353 10.3564 237.521 10.2857 237.714 10.2857H256.286C256.479 10.2857 256.647 10.3564 256.788 10.4978C256.929 10.6391 257 10.8065 257 11Z" fill="#A7B6C2"/>
<path d="M143 23.8571V25.2857C143 25.4792 142.929 25.6466 142.788 25.7879C142.647 25.9293 142.479 26 142.286 26H123.714C123.521 26 123.353 25.9293 123.212 25.7879C123.071 25.6466 123 25.4792 123 25.2857V23.8571C123 23.6637 123.071 23.4963 123.212 23.3549C123.353 23.2135 123.521 23.1429 123.714 23.1429H142.286C142.479 23.1429 142.647 23.2135 142.788 23.3549C142.929 23.4963 143 23.6637 143 23.8571ZM138.714 19.5714V21C138.714 21.1935 138.644 21.3609 138.502 21.5022C138.361 21.6436 138.193 21.7143 138 21.7143H123.714C123.521 21.7143 123.353 21.6436 123.212 21.5022C123.071 21.3609 123 21.1935 123 21V19.5714C123 19.378 123.071 19.2106 123.212 19.0692C123.353 18.9278 123.521 18.8571 123.714 18.8571H138C138.193 18.8571 138.361 18.9278 138.502 19.0692C138.644 19.2106 138.714 19.378 138.714 19.5714ZM141.571 15.2857V16.7143C141.571 16.9077 141.501 17.0751 141.359 17.2165C141.218 17.3579 141.051 17.4286 140.857 17.4286H123.714C123.521 17.4286 123.353 17.3579 123.212 17.2165C123.071 17.0751 123 16.9077 123 16.7143V15.2857C123 15.0923 123.071 14.9249 123.212 14.7835C123.353 14.6421 123.521 14.5714 123.714 14.5714H140.857C141.051 14.5714 141.218 14.6421 141.359 14.7835C141.501 14.9249 141.571 15.0923 141.571 15.2857ZM137.286 11V12.4286C137.286 12.622 137.215 12.7894 137.074 12.9308C136.932 13.0722 136.765 13.1429 136.571 13.1429H123.714C123.521 13.1429 123.353 13.0722 123.212 12.9308C123.071 12.7894 123 12.622 123 12.4286V11C123 10.8065 123.071 10.6391 123.212 10.4978C123.353 10.3564 123.521 10.2857 123.714 10.2857H136.571C136.765 10.2857 136.932 10.3564 137.074 10.4978C137.215 10.6391 137.286 10.8065 137.286 11Z" fill="#A7B6C2"/>
<path d="M219 23.8571V25.2857C219 25.4792 218.929 25.6466 218.788 25.7879C218.647 25.9293 218.479 26 218.286 26H199.714C199.521 26 199.353 25.9293 199.212 25.7879C199.071 25.6466 199 25.4792 199 25.2857V23.8571C199 23.6637 199.071 23.4963 199.212 23.3549C199.353 23.2135 199.521 23.1429 199.714 23.1429H218.286C218.479 23.1429 218.647 23.2135 218.788 23.3549C218.929 23.4963 219 23.6637 219 23.8571ZM219 19.5714V21C219 21.1935 218.929 21.3609 218.788 21.5022C218.647 21.6436 218.479 21.7143 218.286 21.7143H204C203.807 21.7143 203.639 21.6436 203.498 21.5022C203.356 21.3609 203.286 21.1935 203.286 21V19.5714C203.286 19.378 203.356 19.2106 203.498 19.0692C203.639 18.9278 203.807 18.8571 204 18.8571H218.286C218.479 18.8571 218.647 18.9278 218.788 19.0692C218.929 19.2106 219 19.378 219 19.5714ZM219 15.2857V16.7143C219 16.9077 218.929 17.0751 218.788 17.2165C218.647 17.3579 218.479 17.4286 218.286 17.4286H201.143C200.949 17.4286 200.782 17.3579 200.641 17.2165C200.499 17.0751 200.429 16.9077 200.429 16.7143V15.2857C200.429 15.0923 200.499 14.9249 200.641 14.7835C200.782 14.6421 200.949 14.5714 201.143 14.5714H218.286C218.479 14.5714 218.647 14.6421 218.788 14.7835C218.929 14.9249 219 15.0923 219 15.2857ZM219 11V12.4286C219 12.622 218.929 12.7894 218.788 12.9308C218.647 13.0722 218.479 13.1429 218.286 13.1429H205.429C205.235 13.1429 205.068 13.0722 204.926 12.9308C204.785 12.7894 204.714 12.622 204.714 12.4286V11C204.714 10.8065 204.785 10.6391 204.926 10.4978C205.068 10.3564 205.235 10.2857 205.429 10.2857H218.286C218.479 10.2857 218.647 10.3564 218.788 10.4978C218.929 10.6391 219 10.8065 219 11Z" fill="#A7B6C2"/>
</svg>
