<svg width="10" height="12" viewBox="0 0 10 12" fill="none" xmlns="http://www.w3.org/2000/svg">
<path d="M2.85924 5.57143H7.14495V3.96429C7.14495 3.37277 6.93569 2.86775 6.51716 2.44922C6.09863 2.03069 5.59361 1.82143 5.00209 1.82143C4.41058 1.82143 3.90555 2.03069 3.48703 2.44922C3.0685 2.86775 2.85924 3.37277 2.85924 3.96429V5.57143ZM9.82352 6.375V11.1964C9.82352 11.4196 9.7454 11.6094 9.58915 11.7656C9.4329 11.9219 9.24316 12 9.01995 12H0.984236C0.761021 12 0.571289 11.9219 0.415039 11.7656C0.258789 11.6094 0.180664 11.4196 0.180664 11.1964V6.375C0.180664 6.15179 0.258789 5.96205 0.415039 5.8058C0.571289 5.64955 0.761021 5.57143 0.984236 5.57143H1.25209V3.96429C1.25209 2.9375 1.6204 2.0558 2.357 1.3192C3.09361 0.582589 3.97531 0.214285 5.00209 0.214285C6.02888 0.214285 6.91058 0.582589 7.64718 1.3192C8.38379 2.0558 8.75209 2.9375 8.75209 3.96429V5.57143H9.01995C9.24316 5.57143 9.4329 5.64955 9.58915 5.8058C9.7454 5.96205 9.82352 6.15179 9.82352 6.375Z" fill="#C7D7E2"/>
</svg>
