<svg width="13" height="14" viewBox="0 0 13 14" fill="none" xmlns="http://www.w3.org/2000/svg">
<path d="M12.8908 7.17857C12.8908 7.47991 12.7875 7.73382 12.5811 7.94029L7.13184 13.3895C6.9142 13.596 6.6603 13.6992 6.37012 13.6992C6.08552 13.6992 5.8344 13.596 5.61677 13.3895L4.98898 12.7617C4.77693 12.5497 4.6709 12.2958 4.6709 12C4.6709 11.7042 4.77693 11.4503 4.98898 11.2383L7.44155 8.78571H1.54869C1.25851 8.78571 1.02134 8.68248 0.837193 8.476C0.658622 8.26395 0.569336 8.01004 0.569336 7.71429V6.64286C0.569336 6.3471 0.658622 6.09598 0.837193 5.88951C1.02134 5.67745 1.25851 5.57143 1.54869 5.57143H7.44155L4.98898 3.11049C4.77693 2.9096 4.6709 2.65848 4.6709 2.35714C4.6709 2.0558 4.77693 1.80469 4.98898 1.60379L5.61677 0.976004C5.82882 0.76395 6.07994 0.657923 6.37012 0.657923C6.66588 0.657923 6.91978 0.76395 7.13184 0.976004L12.5811 6.42522C12.7875 6.62054 12.8908 6.87165 12.8908 7.17857Z" fill="white"/>
</svg>
